<svg width="46" height="46" viewBox="0 0 46 46" fill="none" xmlns="http://www.w3.org/2000/svg">
<g id="faFacebook" clip-path="url(#clip0_64_396)">
<path id="Vector" d="M45.2812 23C45.2812 10.6914 35.3086 0.71875 23 0.71875C10.6914 0.71875 0.71875 10.6914 0.71875 23C0.71875 34.1209 8.86668 43.3388 19.5186 45.0117V29.4409H13.8584V23H19.5186V18.0909C19.5186 12.5071 22.8428 9.42281 27.9342 9.42281C30.3726 9.42281 32.9223 9.85766 32.9223 9.85766V15.3381H30.112C27.3448 15.3381 26.4814 17.0559 26.4814 18.8178V23H32.6609L31.6726 29.4409H26.4814V45.0117C37.1333 43.3388 45.2812 34.1209 45.2812 23Z" fill="#1F3969"/>
</g>
<defs>
<clipPath id="clip0_64_396">
<rect width="46" height="46" fill="white"/>
</clipPath>
</defs>
</svg>
