<svg width="46" height="46" viewBox="0 0 46 46" fill="none" xmlns="http://www.w3.org/2000/svg">
<g id="faGithub">
<path id="Vector" d="M15.6238 35.7039C15.6238 35.8836 15.4172 36.0273 15.1566 36.0273C14.8602 36.0543 14.6535 35.9105 14.6535 35.7039C14.6535 35.5242 14.8602 35.3805 15.1207 35.3805C15.3902 35.3535 15.6238 35.4973 15.6238 35.7039ZM12.8297 35.2996C12.7668 35.4793 12.9465 35.6859 13.216 35.7398C13.4496 35.8297 13.7191 35.7398 13.773 35.5602C13.827 35.3805 13.6562 35.1738 13.3867 35.093C13.1531 35.0301 12.8926 35.1199 12.8297 35.2996ZM16.8008 35.1469C16.5402 35.2098 16.3605 35.3805 16.3875 35.5871C16.4145 35.7668 16.648 35.8836 16.9176 35.8207C17.1781 35.7578 17.3578 35.5871 17.3309 35.4074C17.3039 35.2367 17.0613 35.1199 16.8008 35.1469ZM22.7125 0.71875C10.2512 0.71875 0.71875 10.1793 0.71875 22.6406C0.71875 32.6043 6.98984 41.1305 15.9473 44.1313C17.0973 44.3379 17.5016 43.6281 17.5016 43.0441C17.5016 42.4871 17.4746 39.4145 17.4746 37.5277C17.4746 37.5277 11.1855 38.8754 9.86484 34.8504C9.86484 34.8504 8.84062 32.2359 7.36719 31.5621C7.36719 31.5621 5.30977 30.1516 7.51094 30.1785C7.51094 30.1785 9.74805 30.3582 10.9789 32.4965C12.9465 35.9645 16.2438 34.9672 17.5285 34.3742C17.7352 32.9367 18.3191 31.9395 18.966 31.3465C13.9438 30.7895 8.87656 30.0617 8.87656 21.4187C8.87656 18.948 9.55937 17.7082 10.9969 16.127C10.7633 15.543 9.99961 13.1352 11.2305 10.0266C13.1082 9.44258 17.4297 12.4523 17.4297 12.4523C19.2266 11.9492 21.1582 11.6887 23.0719 11.6887C24.9855 11.6887 26.9172 11.9492 28.7141 12.4523C28.7141 12.4523 33.0355 9.43359 34.9133 10.0266C36.1441 13.1441 35.3805 15.543 35.1469 16.127C36.5844 17.7172 37.4648 18.957 37.4648 21.4187C37.4648 30.0887 32.173 30.7805 27.1508 31.3465C27.9773 32.0562 28.6781 33.4039 28.6781 35.5152C28.6781 38.543 28.6512 42.2895 28.6512 43.0262C28.6512 43.6102 29.0645 44.3199 30.2055 44.1133C39.1898 41.1305 45.2812 32.6043 45.2812 22.6406C45.2812 10.1793 35.1738 0.71875 22.7125 0.71875ZM9.45156 31.7059C9.33477 31.7957 9.36172 32.0023 9.51445 32.173C9.6582 32.3168 9.86484 32.3797 9.98164 32.2629C10.0984 32.173 10.0715 31.9664 9.91875 31.7957C9.775 31.652 9.56836 31.5891 9.45156 31.7059ZM8.48125 30.9781C8.41836 31.0949 8.5082 31.2387 8.68789 31.3285C8.83164 31.4184 9.01133 31.3914 9.07422 31.2656C9.13711 31.1488 9.04727 31.0051 8.86758 30.9152C8.68789 30.8613 8.54414 30.8883 8.48125 30.9781ZM11.3922 34.1766C11.2484 34.2934 11.3023 34.5629 11.509 34.7336C11.7156 34.9402 11.9762 34.9672 12.093 34.8234C12.2098 34.7066 12.1559 34.4371 11.9762 34.2664C11.7785 34.0598 11.509 34.0328 11.3922 34.1766ZM10.368 32.8559C10.2242 32.9457 10.2242 33.1793 10.368 33.3859C10.5117 33.5926 10.7543 33.6824 10.8711 33.5926C11.0148 33.4758 11.0148 33.2422 10.8711 33.0355C10.7453 32.8289 10.5117 32.7391 10.368 32.8559Z" fill="#1F3969"/>
</g>
</svg>
