<svg width="46" height="46" viewBox="0 0 46 46" fill="none" xmlns="http://www.w3.org/2000/svg">
<g id="faYoutube">
<path id="Vector" d="M43.8961 12.465C43.3945 10.5763 41.9165 9.08883 40.04 8.58403C36.6388 7.66675 23 7.66675 23 7.66675C23 7.66675 9.36132 7.66675 5.95995 8.58403C4.08346 9.08891 2.60555 10.5763 2.10394 12.465C1.19257 15.8884 1.19257 23.0311 1.19257 23.0311C1.19257 23.0311 1.19257 30.1737 2.10394 33.5971C2.60555 35.4858 4.08346 36.9113 5.95995 37.4161C9.36132 38.3334 23 38.3334 23 38.3334C23 38.3334 36.6387 38.3334 40.04 37.4161C41.9165 36.9113 43.3945 35.4858 43.8961 33.5971C44.8074 30.1737 44.8074 23.0311 44.8074 23.0311C44.8074 23.0311 44.8074 15.8884 43.8961 12.465ZM18.5394 29.516V16.5461L29.9387 23.0312L18.5394 29.516Z" fill="#1F3969"/>
</g>
</svg>
