<svg width="25" height="25" viewBox="0 0 25 25" fill="none" xmlns="http://www.w3.org/2000/svg">
<g id="align-right">
<path id="Vector" d="M2.34375 11.375H22.6562C22.8635 11.375 23.0622 11.2927 23.2087 11.1462C23.3552 10.9997 23.4375 10.801 23.4375 10.5938V9.03125C23.4375 8.82405 23.3552 8.62534 23.2087 8.47882C23.0622 8.33231 22.8635 8.25 22.6562 8.25H2.34375C2.13655 8.25 1.93784 8.33231 1.79132 8.47882C1.64481 8.62534 1.5625 8.82405 1.5625 9.03125L1.5625 10.5938C1.5625 10.801 1.64481 10.9997 1.79132 11.1462C1.93784 11.2927 2.13655 11.375 2.34375 11.375ZM22.6562 20.75H2.34375C2.13655 20.75 1.93784 20.8323 1.79132 20.9788C1.64481 21.1253 1.5625 21.324 1.5625 21.5312L1.5625 23.0938C1.5625 23.301 1.64481 23.4997 1.79132 23.6462C1.93784 23.7927 2.13655 23.875 2.34375 23.875H22.6562C22.8635 23.875 23.0622 23.7927 23.2087 23.6462C23.3552 23.4997 23.4375 23.301 23.4375 23.0938V21.5312C23.4375 21.324 23.3552 21.1253 23.2087 20.9788C23.0622 20.8323 22.8635 20.75 22.6562 20.75ZM22.811 2H10.0015C9.91918 1.99994 9.83769 2.0161 9.76165 2.04756C9.68562 2.07902 9.61653 2.12516 9.55834 2.18334C9.50016 2.24153 9.45402 2.31062 9.42256 2.38665C9.3911 2.46269 9.37494 2.54418 9.375 2.62647V4.49854C9.37494 4.58082 9.3911 4.66231 9.42256 4.73835C9.45402 4.81438 9.50016 4.88347 9.55834 4.94166C9.61653 4.99984 9.68562 5.04598 9.76165 5.07744C9.83769 5.1089 9.91918 5.12506 10.0015 5.125H22.811C22.8933 5.12506 22.9748 5.1089 23.0508 5.07744C23.1269 5.04598 23.196 4.99984 23.2542 4.94166C23.3123 4.88347 23.3585 4.81438 23.3899 4.73835C23.4214 4.66231 23.4376 4.58082 23.4375 4.49854V2.62647C23.4376 2.54418 23.4214 2.46269 23.3899 2.38665C23.3585 2.31062 23.3123 2.24153 23.2542 2.18334C23.196 2.12516 23.1269 2.07902 23.0508 2.04756C22.9748 2.0161 22.8933 1.99994 22.811 2ZM22.811 14.5H10.0015C9.91918 14.4999 9.83769 14.5161 9.76165 14.5476C9.68562 14.579 9.61653 14.6252 9.55834 14.6833C9.50016 14.7415 9.45402 14.8106 9.42256 14.8867C9.3911 14.9627 9.37494 15.0442 9.375 15.1265V16.9985C9.37494 17.0808 9.3911 17.1623 9.42256 17.2383C9.45402 17.3144 9.50016 17.3835 9.55834 17.4417C9.61653 17.4998 9.68562 17.546 9.76165 17.5774C9.83769 17.6089 9.91918 17.6251 10.0015 17.625H22.811C22.8933 17.6251 22.9748 17.6089 23.0508 17.5774C23.1269 17.546 23.196 17.4998 23.2542 17.4417C23.3123 17.3835 23.3585 17.3144 23.3899 17.2383C23.4214 17.1623 23.4376 17.0808 23.4375 16.9985V15.1265C23.4376 15.0442 23.4214 14.9627 23.3899 14.8867C23.3585 14.8106 23.3123 14.7415 23.2542 14.6833C23.196 14.6252 23.1269 14.579 23.0508 14.5476C22.9748 14.5161 22.8933 14.4999 22.811 14.5Z" fill="black"/>
</g>
</svg>
