<svg width="49" height="49" viewBox="0 0 49 49" fill="none" xmlns="http://www.w3.org/2000/svg">
<g id="github">
<path id="Vector" d="M16.6428 38.0324C16.6428 38.2238 16.4227 38.377 16.1451 38.377C15.8293 38.4057 15.6092 38.2525 15.6092 38.0324C15.6092 37.841 15.8293 37.6879 16.1068 37.6879C16.3939 37.6592 16.6428 37.8123 16.6428 38.0324ZM13.6664 37.6018C13.5994 37.7932 13.7908 38.0133 14.0779 38.0707C14.3268 38.1664 14.6139 38.0707 14.6713 37.8793C14.7287 37.6879 14.5469 37.4678 14.2598 37.3816C14.0109 37.3146 13.7334 37.4104 13.6664 37.6018ZM17.8965 37.4391C17.6189 37.5061 17.4275 37.6879 17.4562 37.908C17.485 38.0994 17.7338 38.2238 18.0209 38.1568C18.2984 38.0898 18.4898 37.908 18.4611 37.7166C18.4324 37.5348 18.174 37.4104 17.8965 37.4391ZM24.1938 0.765625C10.9197 0.765625 0.765625 10.8432 0.765625 24.1172C0.765625 34.7307 7.4457 43.8129 16.9873 47.0094C18.2123 47.2295 18.643 46.4734 18.643 45.8514C18.643 45.258 18.6143 41.985 18.6143 39.9752C18.6143 39.9752 11.915 41.4107 10.5082 37.1232C10.5082 37.1232 9.41719 34.3383 7.84766 33.6205C7.84766 33.6205 5.65605 32.118 8.00078 32.1467C8.00078 32.1467 10.3838 32.3381 11.6949 34.6158C13.7908 38.31 17.3031 37.2477 18.6717 36.616C18.8918 35.0848 19.5139 34.0225 20.2029 33.3908C14.8531 32.7975 9.45547 32.0223 9.45547 22.8156C9.45547 20.1838 10.1828 18.8631 11.7141 17.1787C11.4652 16.5566 10.6518 13.9918 11.9629 10.6805C13.9631 10.0584 18.5664 13.2645 18.5664 13.2645C20.4805 12.7285 22.5381 12.451 24.5766 12.451C26.615 12.451 28.6727 12.7285 30.5867 13.2645C30.5867 13.2645 35.19 10.0488 37.1902 10.6805C38.5014 14.0014 37.6879 16.5566 37.4391 17.1787C38.9703 18.8727 39.9082 20.1934 39.9082 22.8156C39.9082 32.051 34.2713 32.7879 28.9215 33.3908C29.802 34.1469 30.5484 35.5824 30.5484 37.8314C30.5484 41.0566 30.5197 45.0475 30.5197 45.8322C30.5197 46.4543 30.96 47.2104 32.1754 46.9902C41.7457 43.8129 48.2344 34.7307 48.2344 24.1172C48.2344 10.8432 37.4678 0.765625 24.1938 0.765625ZM10.068 33.7736C9.94355 33.8693 9.97227 34.0895 10.135 34.2713C10.2881 34.4244 10.5082 34.4914 10.6326 34.367C10.757 34.2713 10.7283 34.0512 10.5656 33.8693C10.4125 33.7162 10.1924 33.6492 10.068 33.7736ZM9.03438 32.9984C8.96738 33.1228 9.06309 33.276 9.25449 33.3717C9.40762 33.4674 9.59902 33.4387 9.66602 33.3047C9.73301 33.1803 9.6373 33.0271 9.4459 32.9314C9.25449 32.874 9.10137 32.9027 9.03438 32.9984ZM12.1352 36.4055C11.982 36.5299 12.0395 36.817 12.2596 36.9988C12.4797 37.2189 12.7572 37.2477 12.8816 37.0945C13.0061 36.9701 12.9486 36.683 12.7572 36.5012C12.5467 36.2811 12.2596 36.2523 12.1352 36.4055ZM11.0441 34.9986C10.891 35.0943 10.891 35.3432 11.0441 35.5633C11.1973 35.7834 11.4557 35.8791 11.5801 35.7834C11.7332 35.659 11.7332 35.4102 11.5801 35.19C11.4461 34.9699 11.1973 34.8742 11.0441 34.9986Z" fill="#414158"/>
</g>
</svg>
